<?xml version="1.0" encoding="UTF-8"?>
<svg width="380px" height="380px" viewBox="0 0 380 380" version="1.1" xmlns="http://www.w3.org/2000/svg" xmlns:xlink="http://www.w3.org/1999/xlink">
    <!-- Generator: Sketch 58 (84663) - https://sketch.com -->
    <title>头像背景</title>
    <desc>Created with Sketch.</desc>
    <g id="页面-1" stroke="none" stroke-width="1" fill="none" fill-rule="evenodd">
        <g id="2结果页-1人样式" transform="translate(-770.000000, -348.000000)">
            <g id="编组-3" transform="translate(770.000000, 348.000000)">
                <g id="头像背景">
                    <circle id="椭圆形" fill="#FDBA00" cx="190" cy="190" r="190"></circle>
                    <path d="M190,368 C192.209139,368 194,369.790861 194,372 C194,374.209139 192.209139,376 190,376 C187.790861,376 186,374.209139 186,372 C186,369.790861 187.790861,368 190,368 Z M190,4 C192.209139,4 194,5.790861 194,8 C194,10.209139 192.209139,12 190,12 C187.790861,12 186,10.209139 186,8 C186,5.790861 187.790861,4 190,4 Z" id="形状结合" fill="#FFF2A7"></path>
                    <path d="M190,368 C192.209139,368 194,369.790861 194,372 C194,374.209139 192.209139,376 190,376 C187.790861,376 186,374.209139 186,372 C186,369.790861 187.790861,368 190,368 Z M190,4 C192.209139,4 194,5.790861 194,8 C194,10.209139 192.209139,12 190,12 C187.790861,12 186,10.209139 186,8 C186,5.790861 187.790861,4 190,4 Z" id="形状结合" fill="#FFF2A7" transform="translate(190.000000, 190.000000) rotate(-330.000000) translate(-190.000000, -190.000000) "></path>
                    <path d="M190,368 C192.209139,368 194,369.790861 194,372 C194,374.209139 192.209139,376 190,376 C187.790861,376 186,374.209139 186,372 C186,369.790861 187.790861,368 190,368 Z M190,4 C192.209139,4 194,5.790861 194,8 C194,10.209139 192.209139,12 190,12 C187.790861,12 186,10.209139 186,8 C186,5.790861 187.790861,4 190,4 Z" id="形状结合" fill="#FFF2A7" transform="translate(190.000000, 190.000000) rotate(-300.000000) translate(-190.000000, -190.000000) "></path>
                    <path d="M190,368 C192.209139,368 194,369.790861 194,372 C194,374.209139 192.209139,376 190,376 C187.790861,376 186,374.209139 186,372 C186,369.790861 187.790861,368 190,368 Z M190,4 C192.209139,4 194,5.790861 194,8 C194,10.209139 192.209139,12 190,12 C187.790861,12 186,10.209139 186,8 C186,5.790861 187.790861,4 190,4 Z" id="形状结合" fill="#FFF2A7" transform="translate(190.000000, 190.000000) rotate(-270.000000) translate(-190.000000, -190.000000) "></path>
                    <path d="M190,368 C192.209139,368 194,369.790861 194,372 C194,374.209139 192.209139,376 190,376 C187.790861,376 186,374.209139 186,372 C186,369.790861 187.790861,368 190,368 Z M190,4 C192.209139,4 194,5.790861 194,8 C194,10.209139 192.209139,12 190,12 C187.790861,12 186,10.209139 186,8 C186,5.790861 187.790861,4 190,4 Z" id="形状结合" fill="#FFF2A7" transform="translate(190.000000, 190.000000) rotate(-240.000000) translate(-190.000000, -190.000000) "></path>
                    <path d="M190,368 C192.209139,368 194,369.790861 194,372 C194,374.209139 192.209139,376 190,376 C187.790861,376 186,374.209139 186,372 C186,369.790861 187.790861,368 190,368 Z M190,4 C192.209139,4 194,5.790861 194,8 C194,10.209139 192.209139,12 190,12 C187.790861,12 186,10.209139 186,8 C186,5.790861 187.790861,4 190,4 Z" id="形状结合" fill="#FFF2A7" transform="translate(190.000000, 190.000000) rotate(-210.000000) translate(-190.000000, -190.000000) "></path>
                    <circle id="椭圆形" fill="#FFF2A7" cx="190.5" cy="190.5" r="174.5"></circle>
                </g>
            </g>
        </g>
    </g>
</svg>